<svg width="22" height="22" viewBox="0 0 22 22" fill="none" xmlns="http://www.w3.org/2000/svg">
<path d="M10.9996 7.35507C8.99261 7.35507 7.35472 8.99296 7.35472 11C7.35472 13.007 8.99261 14.6449 10.9996 14.6449C13.0067 14.6449 14.6446 13.007 14.6446 11C14.6446 8.99296 13.0067 7.35507 10.9996 7.35507ZM21.9317 11C21.9317 9.49062 21.9453 7.99492 21.8606 6.48828C21.7758 4.73828 21.3766 3.18515 20.0969 1.90546C18.8145 0.623042 17.2641 0.226558 15.5141 0.141792C14.0047 0.0570267 12.509 0.0706986 11.0024 0.0706986C9.493 0.0706986 7.9973 0.0570267 6.49066 0.141792C4.74066 0.226558 3.18753 0.625777 1.90784 1.90546C0.625423 3.18789 0.228938 4.73828 0.144173 6.48828C0.059407 7.99765 0.0730789 9.49335 0.0730789 11C0.0730789 12.5066 0.059407 14.0051 0.144173 15.5117C0.228938 17.2617 0.628157 18.8148 1.90784 20.0945C3.19027 21.3769 4.74066 21.7734 6.49066 21.8582C8.00003 21.943 9.49573 21.9293 11.0024 21.9293C12.5117 21.9293 14.0075 21.943 15.5141 21.8582C17.2641 21.7734 18.8172 21.3742 20.0969 20.0945C21.3793 18.8121 21.7758 17.2617 21.8606 15.5117C21.9481 14.0051 21.9317 12.5094 21.9317 11ZM10.9996 16.6082C7.89612 16.6082 5.39144 14.1035 5.39144 11C5.39144 7.89648 7.89612 5.39179 10.9996 5.39179C14.1032 5.39179 16.6078 7.89648 16.6078 11C16.6078 14.1035 14.1032 16.6082 10.9996 16.6082ZM16.8375 6.47187C16.1129 6.47187 15.5278 5.88671 15.5278 5.1621C15.5278 4.4375 16.1129 3.85234 16.8375 3.85234C17.5621 3.85234 18.1473 4.4375 18.1473 5.1621C18.1475 5.33417 18.1138 5.50458 18.048 5.66359C17.9823 5.82259 17.8858 5.96706 17.7642 6.08873C17.6425 6.2104 17.498 6.30687 17.339 6.37261C17.18 6.43836 17.0096 6.47209 16.8375 6.47187Z" fill="#185EA1"/>
</svg>
