<svg width="24" height="24" viewBox="0 0 24 24" fill="none" xmlns="http://www.w3.org/2000/svg">
<path fill-rule="evenodd" clip-rule="evenodd" d="M9.00115 8.46384H13.3342V10.6222C13.9583 9.38084 15.559 8.26551 17.9635 8.26551C22.573 8.26551 23.6673 10.7365 23.6673 15.2702V23.6667H19.0007V16.3027C19.0007 13.7208 18.3765 12.2648 16.7875 12.2648C14.5837 12.2648 13.6678 13.834 13.6678 16.3015V23.6667H9.00115V8.46384ZM0.998984 23.4683H5.66565V8.26551H0.998984V23.4683ZM6.33415 3.30834C6.33432 3.6995 6.25675 4.08678 6.10594 4.4477C5.95512 4.80861 5.73408 5.13594 5.45565 5.41068C4.89145 5.97141 4.12776 6.28527 3.33232 6.28334C2.53827 6.28281 1.77635 5.96974 1.21132 5.41184C0.933898 5.13617 0.713601 4.80847 0.563052 4.44751C0.412503 4.08656 0.33466 3.69944 0.333984 3.30834C0.333984 2.51851 0.648984 1.76251 1.21248 1.20484C1.77702 0.646195 2.53926 0.332994 3.33348 0.333344C4.12915 0.333344 4.89215 0.647177 5.45565 1.20484C6.01798 1.76251 6.33415 2.51851 6.33415 3.30834Z" fill="#185EA1"/>
</svg>
