<svg width="500" height="100" viewBox="0 0 500 100" fill="none" xmlns="http://www.w3.org/2000/svg">
<g clip-path="url(#clip0_2302_13273)">
<path fill-rule="evenodd" clip-rule="evenodd" d="M158.74 73.1121V36.4887C158.74 36.0558 159.048 35.7095 159.433 35.7095H170.898C171.283 35.7095 171.667 36.0558 171.667 36.4887V40.2982C172.745 38.48 174.13 37.1813 176.053 36.3155C178.285 35.19 181.286 34.7571 185.364 34.7571C189.288 34.7571 192.289 35.1034 194.751 35.796C197.137 36.5753 198.983 37.7874 200.522 39.519V39.6056C202.138 41.4238 203.062 43.0688 203.6 45.6662C204.139 48.0904 204.293 51.3805 204.293 56.4887V73.1121C204.293 73.545 203.985 73.8913 203.6 73.8913H191.443C191.058 73.8913 190.75 73.545 190.75 73.1121V56.4887C190.75 53.545 190.673 51.8134 190.442 50.6012C190.288 49.6489 189.981 49.0428 189.442 48.4367C188.826 47.8307 188.057 47.3978 186.903 47.138C185.595 46.7917 183.979 46.6186 181.747 46.6186C179.516 46.6186 177.9 46.7917 176.592 47.2246C175.361 47.5709 174.514 48.0904 173.899 48.7831C173.283 49.5623 172.821 50.3415 172.668 51.6402C172.36 53.1121 172.283 55.19 172.283 58.48V73.1121C172.283 73.545 171.975 73.8913 171.59 73.8913H159.433C159.048 73.8913 158.74 73.545 158.74 73.1121ZM411.818 73.1121V21.4238C411.818 20.9909 412.126 20.6445 412.588 20.6445H424.745C425.13 20.6445 425.438 20.9909 425.438 21.4238V47.5709H427.054L437.98 35.9692C438.134 35.796 438.288 35.7095 438.519 35.7095H454.831C454.985 35.7095 455.216 35.796 455.37 35.9692C455.601 36.3155 455.601 36.7484 455.293 37.0947L438.98 53.545L457.525 72.506C457.678 72.6792 457.832 72.8523 457.832 73.1121C457.832 73.545 457.448 73.8913 457.063 73.8913H440.904C440.75 73.8913 440.519 73.8047 440.442 73.7181L427.515 59.1727H425.438V73.1121C425.438 73.545 425.13 73.8913 424.745 73.8913H412.588C412.126 73.8913 411.818 73.545 411.818 73.1121ZM370.498 73.1121V36.4887C370.498 36.0558 370.805 35.7095 371.19 35.7095H382.732C383.117 35.7095 383.425 36.0558 383.425 36.4887V40.2982C384.502 38.48 385.887 37.1813 387.58 36.3155C389.657 35.19 392.351 34.7571 395.89 34.7571C400.969 34.7571 404.431 35.796 406.586 38.2203C408.817 40.7311 409.741 44.5406 409.741 50.2549V52.7657C409.741 53.1986 409.433 53.545 408.971 53.545H397.506C397.121 53.545 396.814 53.1986 396.814 52.7657C396.814 50.2549 396.506 48.6965 395.736 47.8307C394.89 46.9649 393.428 46.6186 391.119 46.6186C389.811 46.6186 388.657 46.8783 387.657 47.3112C386.733 47.6575 385.964 48.2636 385.502 48.9562C384.964 49.7354 384.656 50.6012 384.425 51.8999C384.194 53.2852 384.117 55.19 384.117 57.9605V73.1121C384.117 73.545 383.809 73.8913 383.425 73.8913H371.19C370.805 73.8913 370.498 73.545 370.498 73.1121ZM330.947 35.5363C333.948 35.0168 337.949 34.7571 343.489 34.7571C349.107 34.7571 353.108 35.0168 356.109 35.5363C359.187 36.0558 361.187 36.9216 362.803 38.2203C364.573 39.6922 365.727 41.3372 366.42 43.848C367.035 46.2722 367.266 49.4757 367.266 54.151C367.266 59.2592 367.035 62.6359 366.496 65.2333C365.881 67.8307 364.804 69.5623 363.265 71.0341C361.572 72.506 359.725 73.545 356.647 74.0644C353.723 74.6705 349.645 74.8437 343.566 74.8437C337.488 74.8437 333.332 74.6705 330.408 74.0644C327.331 73.545 325.484 72.5926 323.868 71.0341H323.791C322.175 69.5623 321.098 67.8307 320.559 65.1467C319.944 62.5493 319.713 58.9995 319.713 53.6315C319.713 49.216 320.021 46.0991 320.636 43.7614C321.329 41.3372 322.483 39.6922 324.176 38.3069L324.253 38.2203C325.869 36.9216 327.869 36.0558 330.947 35.5363ZM348.183 46.9649C346.875 46.7917 345.259 46.6186 343.566 46.6186C339.103 46.6186 336.487 46.9649 335.025 48.177C333.717 49.3025 333.332 51.467 333.332 55.1034C333.332 57.4411 333.486 58.9129 333.871 59.9519C334.179 60.9043 334.717 61.4238 335.641 61.8567H335.718C336.41 62.203 337.411 62.4627 338.642 62.6359C339.95 62.809 341.643 62.9822 343.566 62.9822C348.029 62.9822 350.645 62.6359 352.03 61.5103C353.339 60.3848 353.646 58.3069 353.646 54.6705C353.646 52.3328 353.492 50.6878 353.108 49.6489C352.723 48.6965 352.107 48.0904 351.184 47.6575C350.492 47.3978 349.414 47.138 348.183 46.9649ZM260.926 73.3718L250.076 40.4714L234.302 78.2203C232.609 82.203 231.686 84.2809 230.916 85.5796C230.147 87.0515 229.531 87.4844 228.377 88.2636C227.3 89.0428 226.069 89.5623 224.53 89.9086C223.068 90.2549 221.298 90.4281 219.143 90.4281C217.912 90.4281 216.758 90.4281 215.835 90.3415C214.911 90.3415 214.296 90.2549 213.834 90.1683C213.449 90.1683 213.219 89.822 213.219 89.3891V80.0385C213.219 79.6056 213.449 79.2592 213.834 79.1727C214.604 79.1727 214.681 79.1727 216.681 79.1727C218.528 79.1727 219.682 78.9129 220.605 78.0471C221.452 77.2679 222.144 75.9692 222.914 73.8913H219.066C218.759 73.8913 218.528 73.7181 218.451 73.4584L203.908 36.9216C203.831 36.7484 203.831 36.6618 203.831 36.4887C203.831 36.0558 204.139 35.7095 204.524 35.7095H217.912C218.143 35.7095 218.451 35.8826 218.528 36.2289L227.223 61.0774L236.841 36.2289C236.918 35.8826 237.226 35.7095 237.534 35.7095H250.999H251.076H262.388C262.695 35.7095 263.003 35.8826 263.08 36.2289L269.851 60.6445L277.854 36.2289C277.931 35.8826 278.239 35.7095 278.469 35.7095H290.088C290.319 35.7095 290.627 35.8826 290.704 36.2289L298.783 60.2982L305.785 36.3155C305.862 35.9692 306.093 35.7095 306.478 35.7095H319.328H319.405C319.482 35.7095 319.559 35.7095 319.636 35.7095C320.021 35.8826 320.175 36.3155 320.021 36.7484L308.017 73.3718C307.863 73.7181 307.632 73.8913 307.324 73.8913H290.781C290.473 73.8913 290.165 73.7181 290.088 73.3718L284.317 54.0644L278.469 73.2852C278.392 73.6315 278.162 73.8913 277.777 73.8913H261.618H261.541C261.31 73.8913 261.002 73.7181 260.926 73.3718Z" fill="white"/>
<path fill-rule="evenodd" clip-rule="evenodd" d="M489.381 57.3542L498.384 70.0815L499.769 72.0728C500.076 72.5057 499.999 73.1118 499.615 73.4581C499.461 73.6313 499.307 73.7178 499.076 73.7178H496.845H486.765H486.226C485.918 73.7178 485.687 73.5447 485.533 73.2849L485.226 72.9386L479.224 66.9646L473.222 72.9386L472.914 73.2849C472.76 73.5447 472.529 73.7178 472.222 73.7178H471.76H461.68H459.372C458.91 73.7178 458.525 73.1984 458.525 72.6789C458.525 72.4191 458.602 72.1594 458.756 71.9862L460.141 70.0815L466.835 60.5577L469.605 56.6616C469.759 56.4018 469.99 56.3152 470.298 56.3152H477.454C477.916 56.3152 478.3 56.7481 478.3 57.2676V58.6529L481.763 54.4105L478.3 50.2546V51.6399C478.3 52.1594 477.916 52.5923 477.454 52.5923H470.298C469.99 52.5923 469.682 52.4191 469.529 52.1594L466.989 48.523L460.141 38.8261L458.679 36.8347C458.448 36.4018 458.448 35.7092 458.833 35.4494C458.987 35.2763 459.218 35.1897 459.372 35.1897H461.68H471.76H472.222C472.606 35.1897 472.837 35.3629 472.991 35.6226L473.222 35.9689L479.224 41.9429L485.303 35.9689L485.533 35.536C485.687 35.3629 485.995 35.1897 486.226 35.1897H486.765H496.845H499.076C499.538 35.1897 499.999 35.6226 499.999 36.2287C499.999 36.4884 499.846 36.6616 499.692 36.8347L498.384 38.8261L489.381 51.5533C488.919 52.1594 488.611 52.7655 488.304 53.1984C487.919 53.7178 487.688 54.1507 487.457 54.4105C487.688 54.7568 487.919 55.1897 488.304 55.7092C488.611 56.1421 488.919 56.6616 489.381 57.3542Z" fill="#00A7D7"/>
<path d="M142.967 35.6227H153.432C153.894 35.6227 154.355 36.0556 154.355 36.5751V73.1119C154.355 73.6314 153.894 74.0643 153.432 74.0643H142.967C142.429 74.0643 142.044 73.6314 142.044 73.1119V73.0253V72.7656C139.505 74.4106 136.735 75.1898 133.811 75.1898C132.041 75.1898 130.425 74.9301 128.886 74.4972C127.347 74.0643 125.885 73.4582 124.577 72.5924C123.269 71.64 122.192 70.6011 121.191 69.3889C120.191 68.1768 119.345 66.7915 118.729 65.3197C118.037 63.7612 117.575 62.1162 117.19 60.3846C116.882 58.653 116.729 56.8348 116.729 54.9301C116.729 51.034 117.421 47.5708 118.729 44.4539C119.345 42.8954 120.191 41.5101 121.191 40.298C122.192 39.0859 123.269 38.0469 124.577 37.1811C125.885 36.3153 127.347 35.6227 128.886 35.1898C130.425 34.7569 132.041 34.5837 133.811 34.5837C135.58 34.5837 137.273 34.8435 138.812 35.4495C139.966 35.7959 141.044 36.3153 142.044 37.008V36.5751C142.044 36.0556 142.429 35.6227 142.967 35.6227Z" fill="white"/>
<path fill-rule="evenodd" clip-rule="evenodd" d="M125.423 58.9992H131.348L134.58 55.3628H129.655H124.885C124.885 56.6615 125.116 57.8736 125.423 58.9992Z" fill="#7E00C4"/>
<path fill-rule="evenodd" clip-rule="evenodd" d="M125.73 49.8217L129.963 54.497H130.039H131.117H131.501H134.579L131.809 51.4667L131.501 51.0338L131.194 50.7741L131.117 50.6009L127.654 46.7048C126.808 47.5706 126.192 48.6096 125.73 49.8217Z" fill="#7E00C4"/>
<path fill-rule="evenodd" clip-rule="evenodd" d="M131.811 43.9344V50.2547L135.119 53.9777V48.8694V48.4365V43.5015C133.965 43.5015 132.811 43.6746 131.811 43.9344Z" fill="#7E00C4"/>
<path fill-rule="evenodd" clip-rule="evenodd" d="M139.735 44.3674L135.811 48.783V48.8696V53.9778L139.273 50.0817L142.659 46.2722C141.812 45.4064 140.812 44.8003 139.735 44.3674Z" fill="#7E00C4"/>
<path fill-rule="evenodd" clip-rule="evenodd" d="M145.583 50.8608H139.581L136.35 54.4972H141.12H146.045C146.045 53.1985 145.891 51.9864 145.583 50.8608Z" fill="#7E00C4"/>
<path fill-rule="evenodd" clip-rule="evenodd" d="M145.045 59.9515L140.966 55.3628H139.812H139.427H136.35L139.12 58.4797L139.427 58.826L139.735 59.1723L139.812 59.2589L143.121 62.9818C143.967 62.116 144.583 61.0771 145.045 59.9515Z" fill="#7E00C4"/>
<path fill-rule="evenodd" clip-rule="evenodd" d="M139.119 65.7525V59.6054L139.042 59.5188L135.811 55.969V61.2504V61.337V66.3586C136.965 66.3586 138.119 66.0989 139.119 65.7525Z" fill="#7E00C4"/>
<path fill-rule="evenodd" clip-rule="evenodd" d="M131.117 65.6661L135.119 61.164V55.8826V55.9691L131.656 59.8653L128.193 63.6748C129.04 64.5406 130.04 65.1466 131.117 65.6661Z" fill="#7E00C4"/>
<path d="M75.7926 0.0383301H13.0809C5.85654 0.0383301 0 6.62808 0 14.7569V85.3197C0 93.4486 5.85654 100.038 13.0809 100.038H75.7926C83.017 100.038 88.8735 93.4486 88.8735 85.3197V14.7569C88.8735 6.62808 83.017 0.0383301 75.7926 0.0383301Z" fill="white"/>
<path d="M33.4722 59.4321L37.1656 63.588L37.7042 64.2806L37.1656 64.9733L28.3167 74.6702L27.7012 75.3629L27.0856 74.6702L23.4691 70.4278L22.8535 69.8218L23.4691 69.1291L32.318 59.4321L32.9335 58.7395L33.4722 59.4321Z" fill="#7E00C4"/>
<path fill-rule="evenodd" clip-rule="evenodd" d="M34.4717 30.774L32.1633 33.3714L27.3926 38.6528L31.0091 42.8086L35.7798 37.5273L37.2418 39.2589L41.0122 35.103L35.8567 29.2156L34.4717 30.774Z" fill="#7E00C4"/>
<path d="M39.782 51.1204L42.1674 53.8909L45.8608 58.1334L48.8617 61.51L52.4782 65.6658L53.0938 66.3585L52.4782 67.0511L48.7848 71.1204V71.2069L41.244 79.4321L40.6284 80.0381L40.0898 79.4321L36.3963 75.1896L35.7808 74.497L36.3963 73.8909L43.3216 66.2719L40.9362 63.5013L37.2428 59.3455L34.2418 55.9688L30.6253 51.7264L30.0098 51.0338L30.6253 50.4277L34.3957 46.2719L43.7832 35.8823L47.5536 31.7264L48.1692 31.1204L48.7078 31.7264L52.4013 35.9688L54.7866 38.6528L60.6346 32.3325L61.1732 31.6398L61.7888 32.3325L65.4822 36.4883L66.0208 37.181L65.4053 37.8736L59.0187 44.8866L55.2483 49.0424L54.7097 49.6485L54.0941 49.0424L50.4007 44.8L48.0153 42.116L39.782 51.1204Z" fill="#7E00C4"/>
<path d="M54.7858 20.2115L59.3257 25.4929L60.0951 26.3587L59.3257 27.2245L54.0933 33.0253L53.8624 33.2851L53.7085 33.0253L49.0917 27.744L48.3223 26.8782L49.0917 26.0124L54.4011 20.2115L54.555 20.0383L54.7858 20.2115Z" fill="#7E00C4"/>
</g>
<defs>
<clipPath id="clip0_2302_13273">
<rect width="500" height="100" fill="white"/>
</clipPath>
</defs>
</svg>
