<svg width="500" height="100" viewBox="0 0 500 100" fill="none" xmlns="http://www.w3.org/2000/svg">
<g clip-path="url(#clip0_2302_13296)">
<path d="M411.748 73.0088V21.2389C411.748 20.7964 412.141 20.7964 412.535 20.7964H424.735C425.128 20.7964 425.522 20.7964 425.522 21.2389V47.3451H427.096L437.722 35.8406C438.115 35.8406 438.115 35.3982 438.509 35.3982H454.644C455.038 35.3982 455.038 35.8406 455.038 35.8406C455.431 36.2831 455.431 36.7256 455.038 37.1681L438.902 53.5397L457.399 72.5663C457.399 72.5663 457.793 72.5663 457.793 73.0088C457.793 73.4513 457.399 73.8937 457.006 73.8937H440.87C440.477 73.8937 440.477 73.8937 440.477 73.4513L427.49 59.292H425.522V73.0088C425.522 73.4513 425.128 73.8937 424.735 73.8937H412.535C412.141 73.8937 411.748 73.4513 411.748 73.0088ZM158.697 73.0088V36.2831C158.697 35.8406 159.091 35.3982 159.484 35.3982H170.897C171.291 35.3982 171.684 35.8406 171.684 36.2831V40.2654C172.865 38.4955 174.046 37.1681 176.013 36.2831C178.375 34.9557 181.523 34.5132 185.458 34.5132C189.394 34.5132 192.149 34.9557 194.904 35.8406C197.265 36.2831 198.839 37.6105 200.413 39.3805C201.987 41.1504 203.168 42.9203 203.562 45.5751C204.349 47.7875 204.349 51.3274 204.349 56.1946V73.0088C204.349 73.4513 203.955 73.8937 203.562 73.8937H191.362C190.968 73.8937 190.575 73.4513 190.575 73.0088V56.1946C190.575 53.5397 190.575 51.7698 190.575 50.4424C190.181 49.5574 189.787 49.115 189.394 48.23C189 47.7875 188.213 47.3451 187.033 46.9026C185.458 46.9026 183.884 46.4601 181.917 46.4601C179.555 46.4601 177.981 46.9026 176.8 46.9026C175.226 47.3451 174.439 47.7875 174.046 48.6725C173.258 49.5574 172.865 50.4424 172.471 51.7698C172.471 53.0973 172.471 54.8672 172.471 58.407V73.0088C172.471 73.4513 172.078 73.8937 171.684 73.8937H159.484C159.091 73.8937 158.697 73.4513 158.697 73.0088ZM218.516 73.4513L203.955 36.7256C203.955 36.7256 203.955 36.7256 203.955 36.2831C203.955 35.8406 204.349 35.3982 204.742 35.3982H217.729C218.123 35.3982 218.516 35.8406 218.516 36.2831L227.174 61.0619L237.013 36.2831C237.013 35.8406 237.013 35.3982 237.407 35.3982H249.607H250.787H262.2C262.594 35.3982 262.987 35.8406 262.987 36.2831L269.677 60.6194L277.942 36.2831C277.942 35.8406 278.335 35.3982 278.335 35.3982H290.142C290.142 35.3982 290.535 35.8406 290.535 36.2831L298.8 60.1769L305.884 36.2831C305.884 35.8406 305.884 35.3982 306.277 35.3982H319.264L319.658 35.8406C320.051 35.8406 320.051 36.2831 320.051 36.7256L307.851 73.0088C307.851 73.4513 307.458 73.8937 307.458 73.8937H290.535L290.142 73.4513L284.239 53.9822L278.335 73.0088C278.335 73.4513 277.942 73.8937 277.942 73.8937H261.413L261.019 73.4513L250 40.2654L234.258 77.876C232.684 81.8583 231.503 84.0707 231.11 85.3982C229.929 86.7256 229.536 87.1681 228.355 88.053C227.174 88.938 225.994 89.3805 224.42 89.8229C222.845 90.2654 221.271 90.2654 219.303 90.2654C217.729 90.2654 216.942 90.2654 215.762 90.2654C214.974 90.2654 214.187 90.2654 213.794 89.8229C213.4 89.8229 213.007 89.8229 213.007 89.3805V80.0884C213.007 79.6459 213.4 79.2035 213.794 79.2035C214.581 79.2035 214.581 79.2035 216.549 79.2035C218.516 79.2035 219.697 78.761 220.484 77.876C221.271 76.9911 222.058 75.6636 222.845 73.8937H218.91L218.516 73.4513ZM331.071 35.3982C333.826 34.9557 337.761 34.5132 343.271 34.5132C349.174 34.5132 353.109 34.9557 355.864 35.3982C359.013 35.8406 360.98 36.7256 362.554 38.053C364.522 39.8229 365.703 41.1504 366.49 43.8052C366.883 46.0176 367.277 49.5574 367.277 53.9822C367.277 59.292 366.883 62.3893 366.49 65.0442C365.703 67.699 364.916 69.469 363.342 70.7964C361.374 72.5663 359.8 73.4513 356.651 73.8937C353.503 74.3362 349.567 74.7787 343.664 74.7787C337.367 74.7787 333.432 74.3362 330.284 73.8937C327.135 73.4513 325.561 72.5663 323.987 70.7964H323.593C322.019 69.469 321.232 67.699 320.445 65.0442C320.051 62.3893 319.658 58.8495 319.658 53.5397C319.658 49.115 320.051 46.0176 320.445 43.8052C321.232 41.1504 322.413 39.3805 324.38 38.053C325.955 36.7256 327.922 35.8406 331.071 35.3982ZM347.993 46.9026C346.813 46.4601 345.238 46.4601 343.664 46.4601C338.942 46.4601 336.58 46.9026 335.006 48.23C333.826 49.115 333.432 51.3274 333.432 54.8672C333.432 57.0796 333.432 58.8495 333.826 59.7344C334.219 60.6194 334.613 61.5043 335.4 61.5043L335.793 61.9468C336.187 61.9468 337.367 62.3893 338.548 62.3893C340.122 62.8318 341.696 62.8318 343.664 62.8318C347.993 62.8318 350.748 62.3893 351.929 61.5043C353.109 60.1769 353.503 57.9645 353.503 54.4247C353.503 52.2123 353.503 50.4424 353.109 49.5574C352.716 48.6725 351.929 48.23 351.142 47.7875C350.354 47.3451 349.567 46.9026 347.993 46.9026ZM335.4 61.5043L335.793 61.9468L335.4 61.5043ZM370.425 73.0088V36.2831C370.425 35.8406 370.819 35.3982 371.212 35.3982H382.625C383.019 35.3982 383.412 35.8406 383.412 36.2831V40.2654C384.593 38.4955 385.774 37.1681 387.348 36.2831C389.709 34.9557 392.464 34.5132 395.612 34.5132C400.728 34.5132 404.27 35.8406 406.632 38.053C408.599 40.7079 409.78 44.2477 409.78 49.9999V52.6548C409.78 53.0973 409.386 53.5397 408.993 53.5397H397.58C397.187 53.5397 396.793 53.0973 396.793 52.6548C396.793 49.9999 396.399 48.6725 395.612 47.7875C394.825 46.9026 393.251 46.4601 390.89 46.4601C389.709 46.4601 388.529 46.9026 387.741 47.3451C386.561 47.7875 385.774 48.23 385.38 48.6725C384.987 49.5574 384.593 50.4424 384.2 51.7698C384.2 53.0973 384.2 54.8672 384.2 57.9645V73.0088C384.2 73.4513 383.806 73.8937 383.412 73.8937H371.212C370.819 73.8937 370.425 73.4513 370.425 73.0088Z" fill="#7607BD"/>
<path fill-rule="evenodd" clip-rule="evenodd" d="M489.277 57.0797L498.329 69.9116L499.509 72.124C499.903 72.5664 499.903 73.0089 499.509 73.4514H499.116H496.754H486.522H486.129C485.735 73.4514 485.341 73.4514 485.341 73.0089L484.948 72.5664L479.045 66.8142L473.142 72.5664L472.748 73.0089C472.748 73.4514 472.354 73.4514 471.961 73.4514H471.567H461.729H459.367C458.974 73.4514 458.58 73.0089 458.58 72.5664C458.58 72.124 458.58 72.124 458.58 71.6815L460.155 69.9116L466.845 60.6195L469.6 56.6372C469.6 56.1947 469.993 56.1947 469.993 56.1947H477.471C477.864 56.1947 478.258 56.6372 478.258 57.0797V58.4071L481.8 54.4248L478.258 50.0001V51.3275C478.258 52.2124 477.864 52.6549 477.471 52.6549H469.993L469.6 52.2124L466.845 48.2301L460.155 38.4956L458.58 36.7257C458.187 36.2832 458.187 35.8408 458.58 35.3983C458.974 35.3983 458.974 34.9558 459.367 34.9558H461.729H471.567H471.961C472.354 34.9558 472.748 35.3983 472.748 35.3983L473.142 35.8408L479.045 42.0355L484.948 35.8408L485.341 35.3983C485.735 35.3983 485.735 34.9558 486.129 34.9558H486.522H496.754H499.116C499.509 34.9558 499.903 35.3983 499.903 36.2832C499.903 36.2832 499.903 36.7257 499.509 36.7257L498.329 38.4956L489.277 51.3275C488.883 52.2124 488.49 52.6549 488.096 53.0974C487.703 53.5399 487.703 53.9824 487.309 54.4248C487.703 54.8673 487.703 54.8673 488.096 55.7523C488.49 56.1947 488.883 56.6372 489.277 57.0797Z" fill="#00A7D7"/>
<path d="M142.956 35.3981H153.581C153.975 35.3981 154.368 35.8406 154.368 36.2831V36.7256V73.0088C154.368 73.4512 153.975 73.8937 153.581 73.8937H142.956C142.562 73.8937 142.168 73.4512 142.168 73.0088V72.5663C139.414 74.3362 136.659 75.2211 133.904 75.2211C131.936 75.2211 130.362 74.7787 128.788 74.3362C127.214 73.8937 126.033 73.4512 124.459 72.5663C123.278 71.6813 122.098 70.3539 121.31 69.4689C120.13 68.1415 119.343 66.8141 118.556 65.0442C118.162 63.7167 117.769 61.9468 117.375 60.1769C116.981 58.407 116.588 56.6371 116.588 54.8672C116.588 50.8849 117.375 47.345 118.556 44.2477C119.343 42.9203 120.13 41.5928 121.31 40.2654C122.098 38.938 123.278 38.053 124.459 37.1681C126.033 36.2831 127.214 35.3981 128.788 34.9557C130.362 34.5132 131.936 34.5132 133.904 34.5132C135.478 34.5132 137.446 34.9557 139.02 35.3981C139.807 35.8406 140.988 36.2831 142.168 36.7256V36.2831C142.168 35.8406 142.562 35.3981 142.956 35.3981Z" fill="#7E00C4"/>
<path fill-rule="evenodd" clip-rule="evenodd" d="M125.639 58.8496H131.542L134.69 55.3098H129.574H124.852C124.852 56.6372 125.245 57.9647 125.639 58.8496Z" fill="white"/>
<path fill-rule="evenodd" clip-rule="evenodd" d="M125.639 49.5575L129.968 54.4248H131.148H131.542H134.69L131.935 51.3275L131.542 50.885L131.148 50.4425L127.606 46.4602C126.819 47.3452 126.426 48.6726 125.639 49.5575Z" fill="white"/>
<path fill-rule="evenodd" clip-rule="evenodd" d="M131.936 43.8053V50L135.084 53.9823V48.6725V48.23V43.3628C133.903 43.3628 132.723 43.3628 131.936 43.8053Z" fill="white"/>
<path fill-rule="evenodd" clip-rule="evenodd" d="M139.807 44.2478L135.871 48.6726V53.9823L139.413 50L142.561 46.0177C141.774 45.1328 140.987 44.6903 139.807 44.2478Z" fill="white"/>
<path fill-rule="evenodd" clip-rule="evenodd" d="M145.709 50.885H139.806L136.264 54.4248H140.986H146.102C146.102 53.0974 146.102 51.77 145.709 50.885Z" fill="white"/>
<path fill-rule="evenodd" clip-rule="evenodd" d="M144.922 59.7346L140.986 55.3098H139.806H139.412H136.264L139.018 58.4072L139.412 58.8496H139.806V59.2921L142.954 62.8319C144.135 61.947 144.528 61.062 144.922 59.7346Z" fill="white"/>
<path fill-rule="evenodd" clip-rule="evenodd" d="M139.019 65.4867V59.292L135.871 55.7522V61.0619V66.3717C137.052 66.3717 138.232 65.9292 139.019 65.4867Z" fill="white"/>
<path fill-rule="evenodd" clip-rule="evenodd" d="M131.147 65.4867L135.083 61.0619V55.7522L131.541 59.7345L128.393 63.7168C129.18 64.6018 129.967 65.0442 131.147 65.4867Z" fill="white"/>
<path d="M76.0522 0H13.0847C5.91215 0 0.0976562 6.53744 0.0976562 14.6018V85.3982C0.0976562 93.4626 5.91215 100 13.0847 100H76.0522C83.2247 100 89.0392 93.4626 89.0392 85.3982V14.6018C89.0392 6.53744 83.2247 0 76.0522 0Z" fill="#7E00C4"/>
<path d="M33.5496 59.2922L37.0915 63.2745L37.8786 64.1594L37.0915 65.0444L28.4335 74.3364L27.6464 75.2214L27.2528 74.3364L23.7109 70.3541L22.9238 69.4692L23.7109 69.0267L32.3689 59.2922L33.156 58.4072L33.5496 59.2922Z" fill="white"/>
<path fill-rule="evenodd" clip-rule="evenodd" d="M34.7293 30.531L32.3681 33.1859L27.252 38.4956L31.1874 42.9204L35.91 37.6107L37.4842 38.9381L41.0261 34.9558L35.91 29.2036L34.7293 30.531Z" fill="white"/>
<path d="M39.8465 50.8851L42.2078 53.9825L45.7497 57.9648L48.8981 61.5046L52.44 65.4869L53.2271 66.3719L52.44 66.8143L48.8981 71.2391L41.4207 79.2037L40.6336 80.0887L40.24 79.2037L36.3046 75.2214L35.911 74.3365L36.3046 73.894L43.3884 66.3719L41.0271 63.2745L37.4852 59.2922L34.3368 55.7524L30.7949 51.7701L30.0078 50.8851L30.7949 50.4427L34.3368 46.0179L43.7819 35.8409L47.7174 31.8586L48.111 30.9736L48.8981 31.8586L52.44 35.8409L54.8013 38.4958L60.7045 32.3011L61.098 31.4161L61.8851 32.3011L65.427 36.2834L66.2141 37.1683L65.427 37.6108L59.1303 44.6904L55.1948 49.1152L54.8013 49.5577L54.0142 49.1152L50.4722 44.6904L48.111 42.0356L39.8465 50.8851Z" fill="white"/>
<path d="M54.8007 20.3541L59.5232 25.2214L60.3103 26.1063L59.5232 26.9913L54.0136 33.186H53.62L49.291 27.8762L48.5039 26.9913L49.291 26.1063L54.4071 20.3541L54.8007 19.9116V20.3541Z" fill="white"/>
</g>
<defs>
<clipPath id="clip0_2302_13296">
<rect width="500" height="100" fill="white"/>
</clipPath>
</defs>
</svg>
