<svg width="41" height="41" viewBox="0 0 41 41" fill="none" xmlns="http://www.w3.org/2000/svg">
<g clip-path="url(#clip0_1063_13618)">
<path d="M22.4013 12.447C22.3985 12.3345 22.4183 12.2226 22.4595 12.1179C22.5006 12.0131 22.5623 11.9177 22.6409 11.8371C22.7195 11.7566 22.8134 11.6926 22.9171 11.6489C23.0208 11.6052 23.1322 11.5827 23.2448 11.5827C23.3573 11.5827 23.4687 11.6052 23.5724 11.6489C23.6761 11.6926 23.77 11.7566 23.8486 11.8371C23.9272 11.9177 23.9889 12.0131 24.0301 12.1179C24.0712 12.2226 24.091 12.3345 24.0883 12.447C24.0869 13.3453 23.7792 14.2162 23.2159 14.916C22.6526 15.6157 21.8674 16.1023 20.9901 16.2955V22.7119H23.9901C24.1371 22.7108 24.2823 22.6803 24.4173 22.6223C24.5523 22.5642 24.6743 22.4797 24.7761 22.3737C24.8779 22.2677 24.9575 22.1425 25.0101 22.0053C25.0628 21.8681 25.0875 21.7217 25.0827 21.5749C25.0378 21.0825 25.1145 20.5866 25.3061 20.1308C25.4976 19.675 25.7982 19.2732 26.1813 18.9608C27.6795 17.724 28.7616 16.0568 29.2812 14.1848C29.8008 12.3129 29.7327 10.3265 29.0862 8.49445C28.4397 6.66243 27.2461 5.07324 25.6667 3.94193C24.0874 2.81061 22.1986 2.1918 20.256 2.16922C18.3134 2.14664 16.4107 2.72139 14.8055 3.81569C13.2003 4.90999 11.97 6.47101 11.2811 8.28751C10.5922 10.104 10.478 12.0883 10.9539 13.9718C11.4298 15.8554 12.4729 17.5472 13.942 18.8185C14.124 18.9758 14.2923 19.1485 14.4448 19.3346C14.9471 19.988 15.2096 20.7943 15.1883 21.6182C15.1883 21.9083 15.3035 22.1865 15.5086 22.3916C15.7137 22.5967 15.9919 22.7119 16.282 22.7119H19.3033V16.2953C18.4261 16.102 17.6411 15.6154 17.078 14.9157C16.5148 14.216 16.2072 13.3452 16.2058 12.447C16.2031 12.3345 16.2229 12.2226 16.264 12.1179C16.3052 12.0131 16.3669 11.9177 16.4455 11.8371C16.5241 11.7566 16.618 11.6926 16.7217 11.6489C16.8254 11.6052 16.9368 11.5827 17.0493 11.5827C17.1619 11.5827 17.2733 11.6052 17.377 11.6489C17.4807 11.6926 17.5746 11.7566 17.6532 11.8371C17.7318 11.9177 17.7935 12.0131 17.8346 12.1179C17.8758 12.2226 17.8956 12.3345 17.8928 12.447C17.896 13.0428 18.1349 13.6132 18.5573 14.0334C18.9797 14.4536 19.5513 14.6895 20.1472 14.6895C20.743 14.6895 21.3146 14.4536 21.7371 14.0334C22.1595 13.6132 22.3984 13.0428 22.4015 12.447H22.4013Z" fill="#1FB0FF"/>
<path d="M34.8942 29.8914L31.6509 25.3519C31.5728 25.2426 31.4698 25.1536 31.3504 25.0922C31.231 25.0307 31.0986 24.9987 30.9644 24.9987H20.8496L24.9559 30.8202L34.4095 30.8318C34.5188 30.832 34.6261 30.8021 34.7196 30.7452C34.813 30.6884 34.8889 30.6069 34.939 30.5097C34.9892 30.4125 35.0115 30.3033 35.0036 30.1942C34.9957 30.0852 34.9578 29.9804 34.8942 29.8914Z" fill="#1FB0FF"/>
<path d="M9.17282 25.352L5.95657 29.8542C5.89307 29.943 5.85526 30.0477 5.84729 30.1566C5.83932 30.2655 5.8615 30.3745 5.9114 30.4717C5.9613 30.5688 6.03699 30.6504 6.13017 30.7074C6.22334 30.7643 6.33041 30.7946 6.43964 30.7947L15.8611 30.8068L19.9798 24.9987H9.85964C9.72529 24.9986 9.59288 25.0307 9.47342 25.0921C9.35396 25.1536 9.2509 25.2427 9.17282 25.352Z" fill="#1FB0FF"/>
<path d="M16.2968 32.4949H16.2956L8.76563 32.5012V39.1112C8.76562 39.4013 8.88086 39.6795 9.08598 39.8846C9.2911 40.0897 9.56929 40.2049 9.85938 40.2049H19.5686V28.497L16.9856 32.1394C16.9074 32.2494 16.8041 32.339 16.6843 32.4008C16.5645 32.4627 16.4316 32.4949 16.2968 32.4949Z" fill="#1FB0FF"/>
<path d="M23.8281 32.1498L21.2549 28.5022V40.2049H30.9638C31.2538 40.2049 31.532 40.0897 31.7372 39.8846C31.9423 39.6795 32.0575 39.4013 32.0575 39.1112V32.5165L24.5166 32.5072C24.3817 32.5069 24.2487 32.4744 24.1289 32.4122C24.0092 32.35 23.906 32.26 23.8281 32.1498Z" fill="#1FB0FF"/>
</g>
<defs>
<clipPath id="clip0_1063_13618">
<rect width="40" height="40" fill="white" transform="translate(0.5 0.953247)"/>
</clipPath>
</defs>
</svg>
