<svg width="41" height="41" viewBox="0 0 41 41" fill="none" xmlns="http://www.w3.org/2000/svg">
<g clip-path="url(#clip0_1063_13642)">
<path d="M20.5 22.3876C24.0467 22.3876 26.9219 19.5125 26.9219 15.9658C26.9219 12.4191 24.0467 9.54388 20.5 9.54388C16.9533 9.54388 14.0781 12.4191 14.0781 15.9658C14.0781 19.5125 16.9533 22.3876 20.5 22.3876Z" fill="#1FB0FF"/>
<path d="M35.606 15.397C35.8169 15.1235 35.9708 14.8105 36.0585 14.4765C36.1463 14.1425 36.1661 13.7943 36.1169 13.4525C36.0676 13.1107 35.9503 12.7823 35.7718 12.4866C35.5934 12.191 35.3574 11.9341 35.0779 11.7313L33.9841 10.9376C33.6235 10.6761 33.3367 10.3256 33.1516 9.9204C32.9665 9.51517 32.8894 9.06894 32.9279 8.6251L33.0435 7.27822C33.0751 6.93311 33.0369 6.58517 32.9311 6.25514C32.8254 5.92511 32.6542 5.61976 32.4279 5.3573C32.2016 5.09483 31.9248 4.88062 31.6139 4.72745C31.303 4.57427 30.9645 4.48526 30.6185 4.46572L29.2685 4.39072C28.8239 4.3654 28.3934 4.22547 28.0188 3.98453C27.6442 3.74359 27.3384 3.40984 27.131 3.01572L26.506 1.81885C26.3439 1.5136 26.1222 1.24401 25.854 1.02607C25.5857 0.80812 25.2765 0.646259 24.9445 0.550082C24.6126 0.453905 24.2647 0.42537 23.9215 0.46617C23.5783 0.50697 23.2468 0.616274 22.9466 0.787599L21.7716 1.45322C21.3837 1.67288 20.9455 1.78832 20.4998 1.78832C20.054 1.78832 19.6158 1.67288 19.2279 1.45322L18.0529 0.787599C17.7521 0.617246 17.4202 0.509041 17.0768 0.469402C16.7334 0.429764 16.3855 0.459501 16.0539 0.556848C15.7222 0.654195 15.4134 0.817169 15.1459 1.0361C14.8784 1.25503 14.6576 1.52546 14.4966 1.83135L13.8716 3.02822C13.6642 3.42234 13.3584 3.75609 12.9838 3.99703C12.6093 4.23797 12.1788 4.3779 11.7341 4.40322L10.3841 4.47822C10.0381 4.49776 9.69959 4.58677 9.38873 4.73995C9.07786 4.89312 8.80102 5.10733 8.57471 5.3698C8.34841 5.63226 8.17727 5.93761 8.07151 6.26764C7.96575 6.59767 7.92753 6.94561 7.95913 7.29072L8.07476 8.6376C8.11322 9.08144 8.03616 9.52767 7.85107 9.9329C7.66598 10.3381 7.37916 10.6886 7.01851 10.9501L5.92476 11.7438C5.64524 11.9466 5.40927 12.2035 5.2308 12.4991C5.05233 12.7948 4.935 13.1232 4.88576 13.465C4.83651 13.8068 4.85635 14.155 4.9441 14.489C5.03186 14.823 5.18574 15.136 5.39663 15.4095L6.22163 16.4782C6.49394 16.8306 6.67044 17.2475 6.73396 17.6883C6.79748 18.1291 6.74586 18.5789 6.58413 18.9938L6.09351 20.2438C5.96809 20.5655 5.90848 20.9091 5.91822 21.2543C5.92796 21.5994 6.00684 21.9391 6.1502 22.2532C6.29356 22.5673 6.49849 22.8495 6.75284 23.083C7.00719 23.3165 7.30581 23.4966 7.63101 23.6126L8.90288 24.0657C9.32281 24.215 9.69692 24.4705 9.98881 24.8073C10.2807 25.1441 10.4804 25.5507 10.5685 25.9876L10.8123 27.1751L7.56538 37.7282L12.7154 36.1157L15.9216 40.4532L18.8498 30.8814C19.288 31.2451 19.8343 31.4537 20.4035 31.4746C20.9727 31.4955 21.5328 31.3276 21.9966 30.997L25.0779 40.4532L28.2841 36.1157L33.4341 37.7282L30.1091 27.5282C30.131 27.4564 30.1498 27.3876 30.1654 27.3126L30.431 25.9876C30.5191 25.5507 30.7188 25.1441 31.0107 24.8073C31.3026 24.4705 31.6767 24.215 32.0966 24.0657L33.3685 23.6126C33.6937 23.4966 33.9923 23.3165 34.2467 23.083C34.501 22.8495 34.7059 22.5673 34.8493 22.2532C34.9927 21.9391 35.0716 21.5994 35.0813 21.2543C35.091 20.9091 35.0314 20.5655 34.906 20.2438L34.4154 18.9938C34.2536 18.5789 34.202 18.1291 34.2656 17.6883C34.3291 17.2475 34.5056 16.8306 34.7779 16.4782L35.606 15.397ZM11.5779 15.9657C11.5779 14.2011 12.1011 12.4762 13.0815 11.009C14.0618 9.5418 15.4552 8.39826 17.0855 7.72299C18.7158 7.04771 20.5097 6.87103 22.2403 7.21528C23.971 7.55953 25.5607 8.40926 26.8085 9.65701C28.0562 10.9048 28.9059 12.4945 29.2502 14.2252C29.5945 15.9558 29.4178 17.7497 28.7425 19.38C28.0672 21.0102 26.9237 22.4036 25.4565 23.384C23.9893 24.3643 22.2643 24.8876 20.4998 24.8876C18.1343 24.8851 15.8664 23.9443 14.1938 22.2717C12.5211 20.5991 11.5804 18.3312 11.5779 15.9657Z" fill="#1FB0FF"/>
</g>
<defs>
<clipPath id="clip0_1063_13642">
<rect width="40" height="40" fill="white" transform="translate(0.5 0.453247)"/>
</clipPath>
</defs>
</svg>
