<svg width="200" height="192" viewBox="0 0 200 192" fill="none" xmlns="http://www.w3.org/2000/svg">
<path opacity="0.0526316" d="M15.5232 149.229C19.7386 155.571 33.2117 166.183 53.3804 157.898C78.5912 147.541 88.3416 120.089 110.843 105.854C127.45 95.3479 172.075 79.5776 197.735 97.004" stroke="#185EA1" stroke-opacity="0.5" stroke-width="3"/>
<path opacity="0.105263" d="M11.3641 135.935C14.9702 142.74 27.3885 154.886 48.2126 149.03C74.2427 141.71 86.4775 115.56 110.171 104.063C127.659 95.5777 173.497 85.1682 197.405 105.532" stroke="#185EA1" stroke-opacity="0.5" stroke-width="3"/>
<path opacity="0.157895" d="M8.2229 122.461C11.1802 129.655 22.4077 143.203 43.659 139.84C70.2232 135.637 84.8082 111.077 109.435 102.443C127.611 96.0708 174.161 91.1363 196.056 114.214" stroke="#185EA1" stroke-opacity="0.5" stroke-width="3"/>
<path opacity="0.210526" d="M6.11035 108.928C8.38643 116.433 18.3 131.233 39.7458 130.401C66.553 129.36 83.3286 106.658 108.618 100.983C127.284 96.7938 174.035 97.3882 193.676 122.928" stroke="#185EA1" stroke-opacity="0.5" stroke-width="3"/>
<path opacity="0.263158" d="M5.02319 95.4598C6.5931 103.192 15.0842 119.083 36.4895 120.79C63.246 122.924 82.0282 102.329 107.704 99.6737C126.655 97.7139 173.094 103.831 190.268 131.552" stroke="#185EA1" stroke-opacity="0.5" stroke-width="3"/>
<path opacity="0.315789" d="M4.95429 82.1759C5.80083 90.0513 12.7765 106.859 33.9066 111.087C60.3193 116.371 80.9025 98.1091 106.683 98.5032C125.711 98.7941 171.331 110.366 185.847 139.966" stroke="#185EA1" stroke-opacity="0.5" stroke-width="3"/>
<path opacity="0.368421" d="M5.87722 69.1958C5.99112 77.1281 11.3748 94.6681 31.9984 101.37C57.7779 109.748 79.9365 94.0185 105.54 97.4576C124.437 99.996 168.736 116.897 180.437 148.05" stroke="#185EA1" stroke-opacity="0.5" stroke-width="3"/>
<path opacity="0.421053" d="M7.76018 56.6353C7.14018 64.5376 10.8729 82.6179 30.764 91.7208C55.6279 103.099 79.1191 90.0756 104.264 96.522C122.823 101.28 165.318 123.325 174.075 155.69" stroke="#185EA1" stroke-opacity="0.5" stroke-width="3"/>
<path opacity="0.473684" d="M10.5594 44.6055C9.21225 52.3913 11.2532 70.8137 30.1938 82.2178C53.8696 96.4729 78.4361 86.2969 102.847 95.6801C120.865 102.606 161.089 129.552 166.806 162.775" stroke="#185EA1" stroke-opacity="0.5" stroke-width="3"/>
<path opacity="0.526316" d="M14.2202 33.2112C12.1607 40.795 12.4875 59.3578 30.2702 72.9381C52.4985 89.9135 77.8711 82.697 101.281 94.914C118.56 103.931 156.073 135.484 158.687 169.201" stroke="#185EA1" stroke-opacity="0.5" stroke-width="3"/>
<path opacity="0.578947" d="M18.6794 22.5519C15.9302 29.8508 14.5392 48.3505 30.9691 63.9582C51.5064 83.4679 77.4071 79.2899 99.5596 94.207C115.91 105.217 150.3 141.031 149.784 174.872" stroke="#185EA1" stroke-opacity="0.5" stroke-width="3"/>
<path opacity="0.631579" d="M23.8644 12.7171C20.4555 19.6511 17.362 37.885 32.2591 55.3492C50.8805 77.1795 77.0255 76.0857 97.6777 93.5394C112.92 106.422 143.812 146.105 140.17 179.699" stroke="#185EA1" stroke-opacity="0.5" stroke-width="3"/>
<path opacity="0.684211" d="M29.6954 3.78784C25.6642 10.2809 20.9021 28.0493 34.1031 47.1786C50.6044 71.0902 76.7073 73.0927 95.6329 92.8918C109.601 107.505 136.655 150.622 129.928 183.602" stroke="#185EA1" stroke-opacity="0.5" stroke-width="3"/>
<path opacity="0.736842" d="M36.0843 -4.16386C31.475 1.81715 25.0964 18.9254 36.4568 39.5102C50.6573 65.2412 76.4321 70.3179 93.4238 92.2456C105.965 108.43 128.885 154.508 119.145 186.512" stroke="#185EA1" stroke-opacity="0.5" stroke-width="3"/>
<path opacity="0.789474" d="M42.9373 -11.0771C37.8003 -5.67365 29.8752 10.5869 39.2705 32.4017C51.0146 59.6703 76.1789 67.7656 91.0504 91.5815C102.027 109.159 120.562 157.694 107.917 188.372" stroke="#185EA1" stroke-opacity="0.5" stroke-width="3"/>
<path opacity="0.842105" d="M50.1595 -16.9033C44.5512 -12.1366 35.1663 3.09818 42.4935 25.904C51.6526 54.4112 75.9307 65.4366 88.5192 90.8797C97.8105 109.659 111.757 160.118 96.3459 189.134" stroke="#185EA1" stroke-opacity="0.5" stroke-width="3"/>
<path opacity="0.894737" d="M57.6435 -21.6049C51.6253 -17.5272 40.8835 -3.48514 46.0624 20.0618C52.536 49.4954 75.6619 63.33 85.8295 90.1216C93.3339 109.896 102.54 161.728 84.5306 188.762" stroke="#185EA1" stroke-opacity="0.5" stroke-width="3"/>
<path opacity="0.947368" d="M65.287 -25.1569C58.9248 -21.8129 46.9438 -9.11741 49.9176 14.9126C53.6348 44.9502 75.3552 61.4423 82.9904 89.289C88.6257 109.842 92.9896 162.478 72.5801 187.236" stroke="#185EA1" stroke-opacity="0.5" stroke-width="3"/>
<path d="M72.982 -27.5469C66.3455 -24.9732 53.2565 -13.7633 53.9927 10.4866C54.9129 40.7989 74.9897 59.768 80.0089 88.3646C83.7134 109.471 83.1877 162.334 60.6013 184.544" stroke="#185EA1" stroke-opacity="0.5" stroke-width="3"/>
</svg>
