<svg width="41" height="41" viewBox="0 0 41 41" fill="none" xmlns="http://www.w3.org/2000/svg">
<path d="M14.4268 8.8052L16.2729 10.1465C16.4846 10.3004 16.6422 10.5173 16.723 10.7662C16.8038 11.015 16.8038 11.2831 16.7229 11.532L16.0182 13.7024C15.9374 13.9513 15.9374 14.2193 16.0183 14.4682C16.0992 14.717 16.2568 14.9339 16.4685 15.0877C16.6802 15.2415 16.9351 15.3244 17.1968 15.3244C17.4584 15.3244 17.7134 15.2415 17.9251 15.0878L19.7714 13.7464C19.9831 13.5926 20.2381 13.5098 20.4997 13.5098C20.7614 13.5098 21.0164 13.5926 21.228 13.7464L23.0744 15.0878C23.2861 15.2415 23.541 15.3244 23.8027 15.3244C24.0644 15.3244 24.3193 15.2415 24.531 15.0877C24.7427 14.9339 24.9003 14.717 24.9812 14.4682C25.062 14.2193 25.0621 13.9513 24.9812 13.7024L24.2757 11.532C24.1948 11.2831 24.1948 11.015 24.2757 10.7662C24.3565 10.5173 24.514 10.3004 24.7257 10.1465L26.5719 8.8052C26.7836 8.65137 26.9412 8.43448 27.0221 8.18559C27.1029 7.93671 27.1029 7.66861 27.022 7.41973C26.9412 7.17086 26.7836 6.95397 26.5719 6.80016C26.3601 6.64634 26.1052 6.5635 25.8435 6.56351H23.562C23.3003 6.56348 23.0453 6.48062 22.8336 6.32681C22.6219 6.173 22.4643 5.95612 22.3834 5.70726L21.678 3.53689C21.5972 3.288 21.4396 3.0711 21.2279 2.91728C21.0162 2.76345 20.7612 2.6806 20.4995 2.6806C20.2379 2.6806 19.9829 2.76345 19.7712 2.91728C19.5595 3.0711 19.4019 3.288 19.321 3.53689L18.6158 5.70726C18.5349 5.95618 18.3773 6.17309 18.1655 6.32691C17.9537 6.48072 17.6987 6.56355 17.437 6.56351H15.1552C14.8935 6.5635 14.6386 6.64634 14.4269 6.80016C14.2151 6.95397 14.0575 7.17086 13.9767 7.41973C13.8958 7.66861 13.8958 7.93671 13.9767 8.18559C14.0575 8.43448 14.2151 8.65137 14.4268 8.8052Z" fill="#FF0032"/>
<path d="M23.8987 28.0399C23.7669 27.9832 23.6546 27.8892 23.5758 27.7694C23.4969 27.6495 23.4549 27.5092 23.4549 27.3658C23.454 27.2633 23.4742 27.1617 23.5141 27.0673C23.5541 26.9729 23.6131 26.8877 23.6873 26.8171C23.7326 26.7739 23.776 26.7313 23.8085 26.6971C24.0383 26.4551 24.2411 26.1888 24.4132 25.9029C24.8659 25.1475 25.0903 24.2772 25.0593 23.3971C25.0284 22.5169 24.7434 21.6646 24.2388 20.9428C23.7341 20.2211 23.0314 19.6607 22.2154 19.3295C21.3994 18.9982 20.505 18.9102 19.6401 19.076C18.7587 19.2303 17.9441 19.6463 17.3023 20.2698C16.6605 20.8933 16.2211 21.6955 16.0413 22.572C15.8751 23.3268 15.9034 24.1114 16.1235 24.8522C16.3436 25.5931 16.7482 26.2659 17.2995 26.8075C17.3743 26.8785 17.4342 26.9636 17.4756 27.058C17.5171 27.1523 17.5393 27.254 17.5409 27.3571V27.3609C17.5422 27.5055 17.5008 27.6473 17.4219 27.7685C17.3429 27.8897 17.23 27.9849 17.0971 28.0422C15.2791 28.7953 13.8293 30.2319 13.0596 32.043C12.5186 33.2834 12.2472 34.6245 12.2634 35.9776V36.9526C12.2634 37.1617 12.3046 37.3687 12.3846 37.5619C12.4646 37.7551 12.5819 37.9306 12.7298 38.0784C12.8777 38.2262 13.0532 38.3435 13.2464 38.4234C13.4396 38.5034 13.6467 38.5445 13.8558 38.5445H27.1439C27.566 38.5444 27.9709 38.3767 28.2693 38.0782C28.5678 37.7797 28.7355 37.3749 28.7355 36.9527V35.9679C28.7517 34.6153 28.4798 33.2748 27.9379 32.0354C27.1669 30.2259 25.7165 28.7912 23.8987 28.0399Z" fill="#FF0032"/>
<path d="M38.5512 29.8367C37.7803 28.0273 36.3301 26.5926 34.5124 25.8413C34.3807 25.7845 34.2685 25.6905 34.1896 25.5707C34.1107 25.4509 34.0687 25.3106 34.0687 25.1671C34.0678 25.0646 34.0879 24.963 34.1279 24.8686C34.1679 24.7742 34.2269 24.6891 34.3011 24.6184C34.3464 24.5751 34.3899 24.5326 34.4222 24.4983C34.6521 24.2565 34.8549 23.9904 35.027 23.7046C35.4797 22.9492 35.7042 22.0789 35.6733 21.1987C35.6424 20.3186 35.3574 19.4662 34.8528 18.7444C34.3481 18.0226 33.6454 17.4623 32.8294 17.131C32.0134 16.7998 31.1189 16.7118 30.254 16.8776C29.3726 17.0319 28.558 17.4478 27.9161 18.0713C27.2743 18.6948 26.835 19.4971 26.6552 20.3736C26.4891 21.1284 26.5173 21.913 26.7374 22.6538C26.9574 23.3947 27.362 24.0675 27.9133 24.6091C27.9881 24.68 28.048 24.7652 28.0895 24.8595C28.1309 24.9539 28.1531 25.0556 28.1547 25.1586V25.1626C28.1561 25.3072 28.1147 25.449 28.0357 25.5702C27.9568 25.6914 27.8438 25.7866 27.7109 25.8438C26.9848 26.1413 26.3107 26.5524 25.7139 27.0618C27.3884 28.0546 28.7054 29.5525 29.4756 31.3405C30.1184 32.7978 30.4415 34.3759 30.4232 35.9686V36.3463H37.7572C38.1793 36.3463 38.5842 36.1786 38.8827 35.8801C39.1812 35.5816 39.3489 35.1768 39.3489 34.7546V33.7693C39.3651 32.4167 39.0932 31.0761 38.5512 29.8367Z" fill="#FF0032"/>
<path d="M15.2871 27.0613C14.6891 26.5507 14.0134 26.1388 13.2855 25.8413C13.1537 25.7846 13.0415 25.6905 12.9626 25.5707C12.8838 25.4509 12.8417 25.3106 12.8417 25.1671C12.8408 25.0646 12.861 24.963 12.901 24.8686C12.941 24.7742 13 24.689 13.0743 24.6184C13.1194 24.5751 13.1629 24.5326 13.1954 24.4983C13.4252 24.2565 13.6279 23.9904 13.8 23.7046C14.2527 22.9492 14.4772 22.0789 14.4463 21.1987C14.4154 20.3186 14.1304 19.4662 13.6258 18.7444C13.1212 18.0226 12.4185 17.4623 11.6025 17.131C10.7864 16.7998 9.89197 16.7117 9.02703 16.8776C8.14562 17.0319 7.33103 17.4479 6.6892 18.0714C6.04737 18.6949 5.608 19.4971 5.42822 20.3737C5.26208 21.1284 5.29037 21.913 5.51043 22.6538C5.73049 23.3947 6.13511 24.0675 6.68635 24.6091C6.76118 24.68 6.82108 24.7652 6.86254 24.8595C6.90399 24.9539 6.92615 25.0556 6.92772 25.1586V25.1626C6.92909 25.3072 6.8877 25.449 6.80875 25.5702C6.72981 25.6914 6.61682 25.7866 6.48397 25.8438C4.66593 26.5969 3.21614 28.0336 2.44647 29.8447C1.90538 31.085 1.63394 32.4261 1.6501 33.7792V34.7547C1.65009 34.9637 1.69125 35.1706 1.77123 35.3637C1.85122 35.5569 1.96846 35.7323 2.11625 35.8801C2.26405 36.0279 2.43951 36.1452 2.63262 36.2251C2.82573 36.3051 3.0327 36.3463 3.24172 36.3463H10.5763V35.978C10.5581 34.3854 10.8805 32.8072 11.5218 31.3493C12.2914 29.5575 13.6098 28.0561 15.2871 27.0613Z" fill="#FF0032"/>
</svg>
